# xmcd
#
# Track frame offsets:
#   183
#   17733
#   36333
#   55983
#   94608
#   114495
#   132633
#   152910
#   174120
#   210858
#
# Disc length: 3253 seconds
#
# Revision: 0
# Processed by: cddbd v1.5.1PL0 Copyright (c) Steve Scherf et al.
# Submitted via: CD-Datenbank 4.*
#
DISCID=7d0cb30a
DTITLE=David Grant - Change
DYEAR=1987
DGENRE=R and B
TTITLE0=Before Too Long
TTITLE1=Change
TTITLE2=The Touch
TTITLE3=Take Us Back
TTITLE4=Under One Flag
TTITLE5=Emblems
TTITLE6=Thank You
TTITLE7=Ultimate Love
TTITLE8=Take Us Back (Movie Mix)
TTITLE9=Cahne (House Moving Mix)
EXTD=
EXTT0=
EXTT1=
EXTT2=
EXTT3=
EXTT4=
EXTT5=
EXTT6=
EXTT7=
EXTT8=
EXTT9=
PLAYORDER=
